<?xml version="1.0" standalone="no"?>
<!DOCTYPE svg PUBLIC "-//W3C//DTD SVG 20010904//EN"
 "http://www.w3.org/TR/2001/REC-SVG-20010904/DTD/svg10.dtd">
<svg version="1.0" xmlns="http://www.w3.org/2000/svg"
 width="512.000000pt" height="512.000000pt" viewBox="0 0 512.000000 512.000000"
 preserveAspectRatio="xMidYMid meet">

<g transform="translate(0.000000,512.000000) scale(0.100000,-0.100000)"
fill="#000000" stroke="none">
<path d="M985 5108 c-44 -25 -44 -30 -45 -341 l0 -298 -158 -197 c-88 -109
-164 -207 -170 -219 -9 -15 -12 -126 -12 -372 l0 -350 -190 -3 c-252 -4 -234
14 -238 -235 -4 -203 -1 -224 28 -253 17 -17 34 -20 125 -20 75 0 107 -4 110
-12 3 -7 79 -587 169 -1289 91 -702 170 -1287 177 -1301 6 -14 22 -31 36 -37
17 -8 316 -11 1037 -11 l1012 0 29 -30 c41 -43 111 -86 181 -112 52 -19 79
-22 234 -22 190 -1 200 1 355 65 71 30 90 33 175 33 85 0 104 -3 175 -33 154
-64 166 -66 350 -66 140 0 179 3 223 18 85 30 143 67 210 133 69 69 125 172
142 263 17 89 13 644 -5 720 -42 176 -182 323 -361 378 -47 14 -91 17 -214 17
-166 -1 -156 1 -375 -78 -96 -35 -194 -35 -290 0 -38 14 -100 35 -137 47 -61
20 -66 24 -62 47 2 14 38 291 80 615 41 325 77 605 80 623 l6 32 107 0 c103 0
109 1 132 26 23 25 24 31 27 198 2 107 -1 189 -8 214 -17 66 -38 72 -244 72
l-175 0 -3 145 -3 145 -212 213 -213 212 0 132 0 132 62 51 c35 27 65 50 68
50 3 0 54 -99 115 -219 l109 -219 73 36 c40 20 73 40 73 44 0 5 -52 112 -115
238 -63 126 -115 232 -115 234 0 2 24 22 53 45 l54 41 169 0 c117 1 174 4 185
13 35 27 39 54 39 247 l0 192 -29 29 -29 29 -469 0 c-275 0 -494 -4 -532 -11
-354 -57 -630 -363 -643 -714 -3 -66 -1 -76 21 -99 23 -25 30 -26 128 -26
l103 0 0 -112 0 -113 -127 -127 -128 -128 -3 -230 -3 -230 -85 0 -84 0 0 351
c0 246 -3 357 -12 372 -6 12 -82 110 -170 219 l-158 197 0 298 c-1 313 -1 317
-47 341 -30 16 -560 16 -588 0z m465 -373 l0 -215 -170 0 -170 0 0 215 0 215
170 0 170 0 0 -215z m1880 108 l0 -108 -185 -147 -185 -148 -325 0 -324 0 6
33 c11 59 63 173 108 235 78 106 198 185 339 222 60 16 110 19 319 19 l247 1
0 -107z m340 22 l0 -85 -85 0 -85 0 0 85 0 85 85 0 85 0 0 -85z m-2076 -637
l98 -123 -206 -3 c-113 -1 -299 -1 -412 0 l-206 3 98 123 97 122 217 0 217 0
97 -122z m1306 -43 l0 -85 -170 0 -170 0 0 85 0 85 170 0 170 0 0 -85z m-1110
-555 l0 -300 -510 0 -510 0 0 300 0 300 510 0 510 0 0 -300z m1348 107 l192
-192 0 -108 0 -107 -515 0 -515 0 0 192 0 193 107 107 108 108 215 0 215 0
193 -193z m-2118 -662 l0 -85 -340 0 -340 0 0 85 0 85 340 0 340 0 0 -85z
m1370 -228 c0 -269 2 -316 16 -335 9 -13 126 -78 284 -157 148 -74 278 -144
289 -157 33 -35 29 -102 -8 -139 -48 -48 -75 -41 -293 67 -207 103 -223 106
-265 58 l-23 -25 0 -455 c0 -364 -3 -461 -14 -487 -16 -39 -61 -82 -99 -96
-60 -23 -57 -46 -57 374 l0 385 -85 0 -85 0 0 -385 0 -385 -85 0 -85 0 0 385
0 385 -85 0 -85 0 0 -385 0 -385 -85 0 -85 0 -2 383 -3 382 -82 3 -83 3 0
-387 0 -387 -36 6 c-44 7 -98 47 -122 90 -16 30 -17 99 -20 982 -1 522 0 955
2 962 4 10 122 13 601 13 l595 0 0 -313z m1360 228 l0 -85 -595 0 -595 0 0 85
0 85 595 0 595 0 0 -85z m-2728 -1057 l3 -803 23 -56 c41 -102 126 -178 232
-208 34 -9 168 -11 535 -9 l490 3 55 26 c63 31 106 68 144 126 52 78 56 115
56 521 0 204 2 372 4 372 2 0 64 -29 137 -65 123 -60 139 -65 199 -65 81 0
150 30 202 88 51 57 70 105 72 182 1 78 -34 160 -89 209 -19 17 -145 85 -280
153 l-245 123 0 103 0 102 459 0 c253 0 462 -3 464 -7 3 -6 -158 -1262 -162
-1269 -1 -1 -39 -4 -86 -8 -47 -4 -108 -14 -137 -22 -169 -51 -312 -202 -353
-375 -27 -117 -20 -684 11 -781 5 -17 -43 -18 -910 -18 l-915 0 -6 33 c-5 32
-315 2430 -315 2441 0 3 92 6 205 6 l204 0 3 -802z m2506 -684 c37 -14 92 -35
122 -46 46 -19 76 -22 190 -22 124 0 141 2 205 27 180 71 171 70 320 70 106 0
150 -4 184 -16 98 -37 186 -129 213 -221 21 -71 14 -175 -14 -238 -71 -155
-202 -217 -433 -206 -87 5 -115 11 -196 44 -122 49 -187 64 -279 64 -92 0
-157 -15 -279 -64 -81 -33 -109 -39 -196 -44 -217 -11 -346 43 -418 177 -75
136 -51 300 59 406 85 83 168 107 347 99 82 -3 123 -10 175 -30z m-539 -751
c75 -45 146 -64 276 -70 155 -7 243 7 369 59 97 40 106 42 206 42 100 0 109
-2 206 -42 126 -52 214 -66 369 -59 156 8 228 32 344 114 l24 17 -5 -104 c-4
-87 -9 -116 -32 -166 -34 -76 -93 -134 -171 -171 -58 -27 -66 -28 -215 -28
l-155 1 -102 42 c-64 27 -133 47 -183 54 -111 17 -211 1 -343 -54 l-102 -42
-155 -1 c-149 0 -157 1 -216 28 -77 36 -135 94 -170 172 -23 49 -28 78 -32
164 l-5 105 24 -17 c13 -9 44 -29 68 -44z"/>
<path d="M3500 1105 l0 -85 85 0 85 0 0 85 0 85 -85 0 -85 0 0 -85z"/>
<path d="M4352 1108 l3 -83 83 -3 82 -3 0 86 0 85 -85 0 -86 0 3 -82z"/>
<path d="M3160 1025 l0 -85 85 0 85 0 0 85 0 85 -85 0 -85 0 0 -85z"/>
<path d="M4010 1025 l0 -85 85 0 85 0 0 85 0 85 -85 0 -85 0 0 -85z"/>
</g>
</svg>
